<svg width="41" height="77" viewBox="0 0 41 77" fill="none" xmlns="http://www.w3.org/2000/svg">
<path d="M34.5662 63.75H34.4049C34.8433 62.5256 35.4097 61.1837 35.8465 59.925C35.8465 57.4362 34.611 54.9041 33.1798 51.9702C31.4297 48.3823 29.4454 44.3138 29.4454 39.5249C29.4454 33.0747 30.5399 27.9404 30.4721 27.893C30.4043 27.8457 33.286 24.2249 33.286 24.2249C33.286 24.2249 32.3552 21.3511 31.0265 20.7481L34.3255 8.70052C35.2191 8.30278 35.8465 7.41152 35.8465 6.37489C35.8465 4.96861 33.286 3.9139 33.286 3.82485C33.286 3.73579 30.7255 4.96846 30.7255 6.37489C30.7255 6.51385 30.7447 6.64772 30.7665 6.7816C27.7196 7.07489 25.1733 6.21547 22.5783 4.00982C22.8702 3.59549 23.0443 3.09317 23.0443 2.5499C23.0443 1.14361 20.4838 0 20.4838 0C20.4838 0 17.9233 1.14361 17.9233 2.55005C17.9233 3.09317 18.0975 3.59549 18.3893 4.00997C15.7943 6.21562 13.2481 7.07489 10.2011 6.78174C10.2228 6.64787 10.242 6.514 10.242 6.37504C10.242 4.96876 7.68157 3.73535 7.68157 3.82499C7.68157 3.91464 5.1211 4.96861 5.1211 6.37504C5.1211 7.41167 5.74835 8.30278 6.64205 8.70067L9.93989 20.7404L7.68157 24.2251C7.68157 24.2251 11.3368 28.0151 11.5222 28.0501C11.7076 28.085 24.3244 28.0501 24.3244 28.0501C25.031 28.0501 25.6046 26.7751 25.6046 26.7751C25.6046 26.7751 25.031 25.5002 24.3244 25.5002C24.3244 25.5002 11.6368 25.5498 11.5224 25.5002C11.4079 25.4506 10.2422 24.2252 10.2422 24.2252C10.2422 24.2252 11.1867 23.1591 11.5224 22.9503C11.858 22.7414 12.537 22.4121 12.5401 22.4491C12.5433 22.4862 12.762 21.3662 12.7578 21.3399C12.7536 21.3136 9.45606 9.28353 9.45606 9.28353C13.5834 9.80752 17.0797 8.6294 20.4838 5.58225C23.8892 8.6282 27.3854 9.81021 31.5115 9.28353L28.4672 20.4002H16.6431C15.9365 20.4002 15.363 21.6752 15.363 21.6752C15.363 21.6752 15.9365 22.9501 16.6431 22.9501H29.4452C30.1506 22.9501 30.7254 24.2251 30.7254 24.2251C30.7254 24.2251 30.1506 25.5 29.4452 25.5C29.4274 25.5 29.4145 25.509 29.3966 25.5102C29.3019 25.5141 29.2148 25.5408 29.1239 25.565C29.0522 25.5829 28.9792 25.5931 28.9126 25.6237C28.8345 25.6594 28.7718 25.7129 28.7027 25.764C28.64 25.8099 28.5722 25.8481 28.5184 25.9055C28.4647 25.9615 28.4313 26.0318 28.3878 26.0981C28.3392 26.1721 28.2879 26.2435 28.256 26.3276C28.2495 26.3442 28.2368 26.3557 28.2303 26.3723C28.1753 26.5354 26.8847 30.4969 26.8847 39.5252C26.8847 44.9018 29.0982 49.4383 30.8777 53.0848C32.1694 55.7342 33.2857 58.0229 33.2857 59.9251C33.2857 61.7841 31.3117 63.7501 29.4451 63.7501H16.6431C15.9365 63.7501 15.4135 65.025 15.363 65.025C15.3124 65.025 15.9365 66.3 16.6431 66.3H34.5662C36.4328 66.3 38.4068 70.125 38.4068 70.125V73.95H2.56077C2.56077 73.95 2.48531 70.1254 2.56077 70.125C2.63624 70.1245 4.5348 66.3 6.40141 66.3H11.5222C12.2288 66.3 12.8024 65.025 12.8024 65.025C12.8024 65.025 12.2288 63.7501 11.5222 63.7501C9.6556 63.7501 7.68157 61.7841 7.68157 59.9251C7.68157 58.0228 8.7979 55.7342 10.0896 53.0848C11.8691 49.4383 14.0825 44.9018 14.0825 39.5252C14.0825 37.8486 13.8713 35.217 13.4565 31.7044C13.3732 31.0044 12.0341 30.5876 12.0341 30.5876C12.0341 30.5876 10.8307 31.3041 10.9127 32.0041C11.3108 35.3688 11.5221 37.9698 11.5221 39.5253C11.5221 44.3142 9.53768 48.3827 7.78764 51.9706C6.3564 54.9044 5.11075 59.0189 5.12095 59.9254C5.13115 60.8319 6.55608 63.7504 6.55608 63.7504C6.55608 63.7504 6.56628 63.6259 6.40111 63.7504C6.23593 63.8749 0 66.8486 0 70.1254V75.2254L1.28016 76.5003C1.28016 76.5003 39.6164 76.5746 39.6865 76.5003C39.7566 76.4261 40.8917 75.2956 40.9667 75.2254C41.0417 75.1552 40.9667 70.1254 40.9667 70.1254C40.9671 66.8482 34.5662 63.75 34.5662 63.75Z" fill="white"/>
</svg>
